<svg data-v-423bf9ae="" xmlns="http://www.w3.org/2000/svg" viewBox="0 0 316.0662335708371 60" class="font"><!----><!----><!----><g data-v-423bf9ae="" id="da35666c-8268-43f0-a200-fafe35b69746" fill="black" transform="matrix(4.1407868148896405,0,0,4.1407868148896405,-4.637677763295983,-29.56521778229451)"><path d="M2.55 19.19L2.55 19.19Q1.78 19.19 1.45 18.77L1.45 18.77L1.45 18.77Q1.12 18.35 1.12 17.44L1.12 17.44L1.12 17.44Q1.12 16.74 1.32 15.32L1.32 15.32L1.32 15.32Q1.53 13.90 2.06 10.77L2.06 10.77L1.44 9.52L1.44 9.52Q2.79 8.67 3.84 8.67L3.84 8.67L3.84 8.67Q4.76 8.67 5.30 9.16L5.30 9.16L5.30 9.16Q5.84 9.66 6.23 11.08L6.23 11.08L6.23 11.08Q6.62 12.50 7.03 15.43L7.03 15.43L7.20 15.43L7.20 15.43Q7.63 13.86 8.44 12.31L8.44 12.31L8.44 12.31Q9.24 10.77 10.35 9.74L10.35 9.74L10.35 9.74Q11.47 8.72 12.73 8.72L12.73 8.72L12.73 8.72Q13.34 8.72 13.61 9.04L13.61 9.04L13.61 9.04Q13.87 9.35 13.87 9.91L13.87 9.91L13.87 9.91Q13.87 10.21 13.66 11.41L13.66 11.41L13.66 11.41Q13.45 12.61 13.41 12.84L13.41 12.84L13.41 12.84Q12.77 16.32 12.77 16.98L12.77 16.98L12.77 16.98Q12.77 18.10 13.16 18.68L13.16 18.68L13.16 18.68Q12.42 19.21 11.68 19.21L11.68 19.21L11.68 19.21Q10.92 19.21 10.58 18.79L10.58 18.79L10.58 18.79Q10.25 18.37 10.25 17.46L10.25 17.46L10.25 17.46Q10.25 16.76 10.44 15.46L10.44 15.46L10.44 15.46Q10.64 14.15 11.13 11.33L11.13 11.33L11.02 11.33L11.02 11.33Q10.26 12.14 9.67 13.30L9.67 13.30L9.67 13.30Q9.07 14.46 8.71 15.64L8.71 15.64L8.71 15.64Q8.34 16.81 8.23 17.68L8.23 17.68L8.23 17.68Q7.92 17.96 7.55 18.11L7.55 18.11L7.55 18.11Q7.17 18.26 6.80 18.26L6.80 18.26L6.80 18.26Q6.23 18.26 5.89 17.75L5.89 17.75L5.89 17.75Q5.56 17.25 5.28 15.81L5.28 15.81L5.28 15.81Q5.00 14.36 4.62 11.33L4.62 11.33L4.51 11.33L4.51 11.33Q4.17 13.02 3.90 14.71L3.90 14.71L3.90 14.71Q3.63 16.39 3.63 16.97L3.63 16.97L3.63 16.97Q3.63 18.10 4.02 18.66L4.02 18.66L4.02 18.66Q3.30 19.19 2.55 19.19L2.55 19.19ZM22.71 10.43L22.71 10.43Q23.81 10.43 23.81 11.51L23.81 11.51L23.81 11.51Q23.81 13.41 22.79 15.81L22.79 15.81L22.79 15.81Q21.77 18.21 19.93 19.92L19.93 19.92L19.93 19.92Q18.09 21.63 15.75 21.63L15.75 21.63L15.75 21.63Q14.69 21.63 14.13 21.25L14.13 21.25L14.13 21.25Q13.58 20.87 13.58 20.19L13.58 20.19L13.58 20.19Q13.58 19.87 13.74 19.55L13.74 19.55L13.74 19.55Q13.90 19.24 14.11 19.05L14.11 19.05L14.11 19.05Q14.67 19.89 15.90 19.89L15.90 19.89L15.90 19.89Q16.37 19.89 16.93 19.70L16.93 19.70L16.93 19.70Q17.49 19.50 18.05 19.12L18.05 19.12L18.05 19.12Q17.14 18.96 16.71 18.31L16.71 18.31L16.71 18.31Q16.28 17.67 16.17 16.84L16.17 16.84L16.17 16.84Q16.06 16.00 16.04 14.63L16.04 14.63L16.04 14.63Q16.03 13.15 15.88 12.28L15.88 12.28L15.88 12.28Q15.74 11.41 15.22 10.93L15.22 10.93L15.22 10.93Q15.88 10.43 16.62 10.43L16.62 10.43L16.62 10.43Q17.39 10.43 17.78 10.91L17.78 10.91L17.78 10.91Q18.17 11.40 18.28 12.14L18.28 12.14L18.28 12.14Q18.40 12.88 18.40 14.00L18.40 14.00L18.40 14.99L18.40 14.99Q18.40 16.27 18.56 17.02L18.56 17.02L18.56 17.02Q18.72 17.78 19.24 18.09L19.24 18.09L19.24 18.09Q20.23 17.00 20.83 15.40L20.83 15.40L20.83 15.40Q21.43 13.80 21.43 11.73L21.43 11.73L21.43 11.73Q21.43 11.26 21.38 10.93L21.38 10.93L21.38 10.93Q21.69 10.70 22.04 10.56L22.04 10.56L22.04 10.56Q22.39 10.43 22.71 10.43L22.71 10.43ZM28.98 19.18L28.98 19.18Q26.96 19.18 25.83 18.09L25.83 18.09L25.83 18.09Q24.70 17.00 24.70 15.04L24.70 15.04L24.70 15.04Q24.70 13.23 25.52 11.77L25.52 11.77L25.52 11.77Q26.35 10.32 27.78 9.49L27.78 9.49L27.78 9.49Q29.20 8.67 30.97 8.67L30.97 8.67L30.97 8.67Q32.17 8.67 32.87 9.08L32.87 9.08L32.87 9.08Q33.57 9.49 33.57 10.22L33.57 10.22L33.57 10.22Q33.57 10.82 33.15 11.21L33.15 11.21L33.15 11.21Q32.72 11.59 32.06 11.59L32.06 11.59L32.06 11.59Q31.42 11.59 30.87 11.26L30.87 11.26L30.87 11.26Q30.32 10.92 30.00 10.26L30.00 10.26L30.00 10.26Q29.22 10.57 28.59 11.29L28.59 11.29L28.59 11.29Q27.97 12.01 27.62 13.00L27.62 13.00L27.62 13.00Q27.27 13.99 27.27 15.11L27.27 15.11L27.27 15.11Q27.27 16.42 27.74 17.16L27.74 17.16L27.74 17.16Q28.21 17.89 29.06 17.89L29.06 17.89L29.06 17.89Q29.72 17.89 30.25 17.54L30.25 17.54L30.25 17.54Q30.79 17.19 31.10 16.59L31.10 16.59L31.10 16.59Q31.42 15.99 31.46 15.26L31.46 15.26L31.46 15.26Q33.04 15.26 33.04 16.44L33.04 16.44L33.04 16.44Q33.04 17.18 32.49 17.81L32.49 17.81L32.49 17.81Q31.95 18.44 31.02 18.81L31.02 18.81L31.02 18.81Q30.09 19.18 28.98 19.18L28.98 19.18ZM36.19 19.18L36.19 19.18Q35.48 19.18 35.15 18.82L35.15 18.82L35.15 18.82Q34.82 18.45 34.82 17.74L34.82 17.74L34.82 17.74Q34.82 16.80 35.84 11.63L35.84 11.63L36.19 9.80L35.46 8.83L35.46 8.83Q35.97 8.46 36.58 8.22L36.58 8.22L36.58 8.22Q37.18 7.98 37.69 7.98L37.69 7.98L37.69 7.98Q38.23 7.98 38.47 8.19L38.47 8.19L38.47 8.19Q38.71 8.40 38.71 8.89L38.71 8.89L38.71 8.89Q38.71 9.20 38.61 9.67L38.61 9.67L38.61 9.67Q38.51 10.14 38.29 11.07L38.29 11.07L38.29 11.07Q38.23 11.34 38.08 11.97L38.08 11.97L38.08 11.97Q37.93 12.60 37.81 13.15L37.81 13.15L37.95 13.22L37.95 13.22Q38.75 11.80 39.78 11.12L39.78 11.12L39.78 11.12Q40.81 10.43 41.87 10.43L41.87 10.43L41.87 10.43Q42.76 10.43 43.18 10.86L43.18 10.86L43.18 10.86Q43.61 11.28 43.61 12.19L43.61 12.19L43.61 12.19Q43.61 12.70 43.51 13.23L43.51 13.23L43.51 13.23Q43.41 13.76 43.19 14.69L43.19 14.69L43.19 14.69Q42.97 15.60 42.84 16.25L42.84 16.25L42.84 16.25Q42.71 16.91 42.71 17.54L42.71 17.54L42.71 17.54Q42.71 17.88 42.78 18.17L42.78 18.17L42.78 18.17Q42.85 18.45 42.97 18.61L42.97 18.61L42.97 18.61Q42.35 19.18 41.68 19.18L41.68 19.18L41.68 19.18Q40.96 19.18 40.64 18.82L40.64 18.82L40.64 18.82Q40.31 18.45 40.31 17.74L40.31 17.74L40.31 17.74Q40.31 17.18 40.43 16.54L40.43 16.54L40.43 16.54Q40.56 15.90 40.80 15.02L40.80 15.02L40.80 15.02Q40.99 14.25 41.08 13.82L41.08 13.82L41.08 13.82Q41.17 13.38 41.17 13.03L41.17 13.03L41.17 13.03Q41.17 12.24 40.54 12.24L40.54 12.24L40.54 12.24Q39.89 12.24 39.10 12.94L39.10 12.94L39.10 12.94Q38.32 13.64 37.77 14.85L37.77 14.85L37.77 14.85Q37.23 16.07 37.23 17.54L37.23 17.54L37.23 17.54Q37.23 18.28 37.46 18.61L37.46 18.61L37.46 18.61Q36.88 19.18 36.19 19.18L36.19 19.18ZM48.87 19.18L48.87 19.18Q47.77 19.18 46.94 18.73L46.94 18.73L46.94 18.73Q46.12 18.27 45.67 17.44L45.67 17.44L45.67 17.44Q45.22 16.60 45.22 15.50L45.22 15.50L45.22 15.50Q45.22 14.03 45.88 12.87L45.88 12.87L45.88 12.87Q46.54 11.72 47.71 11.07L47.71 11.07L47.71 11.07Q48.89 10.43 50.37 10.43L50.37 10.43L50.37 10.43Q50.90 10.43 51.41 10.54L51.41 10.54L51.41 10.54Q51.56 10.98 51.55 11.51L51.55 11.51L51.55 11.51Q50.33 11.51 49.43 12.04L49.43 12.04L49.43 12.04Q48.54 12.57 48.06 13.49L48.06 13.49L48.06 13.49Q47.59 14.41 47.59 15.55L47.59 15.55L47.59 15.55Q47.59 16.74 48.01 17.34L48.01 17.34L48.01 17.34Q48.44 17.93 49.21 17.93L49.21 17.93L49.21 17.93Q50.19 17.93 50.85 17.14L50.85 17.14L50.85 17.14Q51.51 16.35 51.66 14.99L51.66 14.99L51.66 14.99Q50.58 14.36 50.58 13.19L50.58 13.19L50.58 13.19Q50.58 12.46 51.02 11.96L51.02 11.96L51.02 11.96Q51.46 11.47 52.11 11.47L52.11 11.47L52.11 11.47Q52.86 11.47 53.32 12.08L53.32 12.08L53.32 12.08Q53.77 12.70 53.77 13.73L53.77 13.73L53.77 13.73Q53.77 15.23 53.12 16.49L53.12 16.49L53.12 16.49Q52.47 17.74 51.35 18.46L51.35 18.46L51.35 18.46Q50.22 19.18 48.87 19.18L48.87 19.18ZM57.99 9.49L57.99 9.49Q57.41 9.49 57.06 9.22L57.06 9.22L57.06 9.22Q56.70 8.95 56.70 8.47L56.70 8.47L56.70 8.47Q56.70 7.88 57.20 7.51L57.20 7.51L57.20 7.51Q57.71 7.14 58.34 7.14L58.34 7.14L58.34 7.14Q58.91 7.14 59.27 7.41L59.27 7.41L59.27 7.41Q59.63 7.69 59.63 8.15L59.63 8.15L59.63 8.15Q59.63 8.74 59.14 9.11L59.14 9.11L59.14 9.11Q58.66 9.49 57.99 9.49L57.99 9.49ZM56.98 19.18L56.98 19.18Q56.27 19.18 55.94 18.82L55.94 18.82L55.94 18.82Q55.61 18.47 55.61 17.74L55.61 17.74L55.61 17.74Q55.61 17.18 55.87 15.83L55.87 15.83L55.87 15.83Q56.13 14.48 56.62 12.29L56.62 12.29L55.90 11.30L55.90 11.30Q56.43 10.91 57.05 10.67L57.05 10.67L57.05 10.67Q57.67 10.43 58.20 10.43L58.20 10.43L58.20 10.43Q58.72 10.43 58.93 10.65L58.93 10.65L58.93 10.65Q59.15 10.86 59.15 11.37L59.15 11.37L59.15 11.37Q59.15 11.56 58.83 12.92L58.83 12.92L58.83 12.92Q58.46 14.43 58.24 15.58L58.24 15.58L58.24 15.58Q58.02 16.72 58.02 17.54L58.02 17.54L58.02 17.54Q58.02 18.33 58.38 18.61L58.38 18.61L58.38 18.61Q57.72 19.18 56.98 19.18L56.98 19.18ZM64.39 19.18L64.39 19.18Q62.68 19.18 61.71 18.24L61.71 18.24L61.71 18.24Q60.73 17.30 60.73 15.64L60.73 15.64L60.73 15.64Q60.73 14.15 61.42 12.96L61.42 12.96L61.42 12.96Q62.10 11.77 63.30 11.10L63.30 11.10L63.30 11.10Q64.50 10.43 65.98 10.43L65.98 10.43L65.98 10.43Q67.06 10.43 67.70 10.82L67.70 10.82L67.70 10.82Q68.33 11.20 68.33 11.84L68.33 11.84L68.33 11.84Q68.33 12.38 67.96 12.73L67.96 12.73L67.96 12.73Q67.58 13.08 66.99 13.08L66.99 13.08L66.99 13.08Q66.43 13.08 65.96 12.78L65.96 12.78L65.96 12.78Q65.49 12.47 65.21 11.90L65.21 11.90L65.21 11.90Q64.61 12.14 64.13 12.70L64.13 12.70L64.13 12.70Q63.64 13.26 63.37 14.04L63.37 14.04L63.37 14.04Q63.10 14.83 63.10 15.68L63.10 15.68L63.10 15.68Q63.10 16.76 63.47 17.35L63.47 17.35L63.47 17.35Q63.84 17.93 64.51 17.93L64.51 17.93L64.51 17.93Q65.30 17.93 65.85 17.31L65.85 17.31L65.85 17.31Q66.40 16.69 66.44 15.79L66.44 15.79L66.44 15.79Q67.17 15.79 67.56 16.06L67.56 16.06L67.56 16.06Q67.94 16.32 67.94 16.86L67.94 16.86L67.94 16.86Q67.94 17.49 67.47 18.02L67.47 18.02L67.47 18.02Q66.99 18.55 66.17 18.87L66.17 18.87L66.17 18.87Q65.35 19.18 64.39 19.18L64.39 19.18ZM77.45 12.45L77.45 12.45Q77.45 13.41 76.79 14.11L76.79 14.11L76.79 14.11Q76.13 14.81 74.89 15.19L74.89 15.19L74.89 15.19Q73.64 15.57 71.92 15.58L71.92 15.58L71.92 15.76L71.92 15.76Q71.92 16.79 72.28 17.36L72.28 17.36L72.28 17.36Q72.65 17.93 73.29 17.93L73.29 17.93L73.29 17.93Q74.07 17.93 74.58 17.39L74.58 17.39L74.58 17.39Q75.08 16.84 75.12 15.95L75.12 15.95L75.12 15.95Q75.85 15.95 76.24 16.22L76.24 16.22L76.24 16.22Q76.62 16.49 76.62 17.01L76.62 17.01L76.62 17.01Q76.62 17.60 76.15 18.10L76.15 18.10L76.15 18.10Q75.67 18.59 74.85 18.89L74.85 18.89L74.85 18.89Q74.03 19.18 73.04 19.18L73.04 19.18L73.04 19.18Q71.40 19.18 70.48 18.26L70.48 18.26L70.48 18.26Q69.55 17.33 69.55 15.71L69.55 15.71L69.55 15.71Q69.55 14.21 70.25 13.01L70.25 13.01L70.25 13.01Q70.94 11.80 72.16 11.12L72.16 11.12L72.16 11.12Q73.37 10.43 74.89 10.43L74.89 10.43L74.89 10.43Q76.10 10.43 76.78 10.96L76.78 10.96L76.78 10.96Q77.45 11.49 77.45 12.45L77.45 12.45ZM74.51 11.77L74.51 11.77Q73.67 11.77 72.98 12.59L72.98 12.59L72.98 12.59Q72.28 13.40 72.03 14.63L72.03 14.63L72.03 14.63Q73.63 14.56 74.50 14.04L74.50 14.04L74.50 14.04Q75.38 13.51 75.38 12.61L75.38 12.61L75.38 12.61Q75.38 12.24 75.14 12.01L75.14 12.01L75.14 12.01Q74.90 11.77 74.51 11.77L74.51 11.77Z"></path></g><!----><!----></svg>